<mxfile host="Electron" agent="Mozilla/5.0 (Windows NT 10.0; Win64; x64) AppleWebKit/537.36 (KHTML, like Gecko) draw.io/26.2.15 Chrome/134.0.6998.205 Electron/35.2.1 Safari/537.36" version="26.2.15">
  <diagram name="Page-1" id="24vGDQ9Nnpad0kuf9jD0">
    <mxGraphModel dx="786" dy="516" grid="1" gridSize="10" guides="1" tooltips="1" connect="1" arrows="1" fold="1" page="1" pageScale="1" pageWidth="850" pageHeight="1100" math="0" shadow="0">
      <root>
        <mxCell id="0" />
        <mxCell id="1" parent="0" />
        <mxCell id="D53-Lh20W38LILI7OgYY-1" value="Client" style="rounded=0;whiteSpace=wrap;html=1;" vertex="1" parent="1">
          <mxGeometry x="10" y="150" width="120" height="60" as="geometry" />
        </mxCell>
        <mxCell id="D53-Lh20W38LILI7OgYY-47" style="edgeStyle=orthogonalEdgeStyle;rounded=0;orthogonalLoop=1;jettySize=auto;html=1;exitX=0.5;exitY=1;exitDx=0;exitDy=0;entryX=1;entryY=0.75;entryDx=0;entryDy=0;" edge="1" parent="1" source="D53-Lh20W38LILI7OgYY-2" target="D53-Lh20W38LILI7OgYY-28">
          <mxGeometry relative="1" as="geometry" />
        </mxCell>
        <mxCell id="D53-Lh20W38LILI7OgYY-48" value="personal_information_deal_car" style="edgeLabel;html=1;align=center;verticalAlign=middle;resizable=0;points=[];" vertex="1" connectable="0" parent="D53-Lh20W38LILI7OgYY-47">
          <mxGeometry x="0.2904" y="-9" relative="1" as="geometry">
            <mxPoint as="offset" />
          </mxGeometry>
        </mxCell>
        <mxCell id="D53-Lh20W38LILI7OgYY-2" value="Admin" style="rounded=0;whiteSpace=wrap;html=1;" vertex="1" parent="1">
          <mxGeometry x="620" y="130" width="120" height="70" as="geometry" />
        </mxCell>
        <mxCell id="D53-Lh20W38LILI7OgYY-35" style="edgeStyle=orthogonalEdgeStyle;rounded=0;orthogonalLoop=1;jettySize=auto;html=1;exitX=0;exitY=0.5;exitDx=0;exitDy=0;entryX=0.5;entryY=1;entryDx=0;entryDy=0;" edge="1" parent="1" source="D53-Lh20W38LILI7OgYY-28" target="D53-Lh20W38LILI7OgYY-1">
          <mxGeometry relative="1" as="geometry" />
        </mxCell>
        <mxCell id="D53-Lh20W38LILI7OgYY-36" value="result" style="edgeLabel;html=1;align=center;verticalAlign=middle;resizable=0;points=[];" vertex="1" connectable="0" parent="D53-Lh20W38LILI7OgYY-35">
          <mxGeometry x="-0.459" y="-4" relative="1" as="geometry">
            <mxPoint as="offset" />
          </mxGeometry>
        </mxCell>
        <mxCell id="D53-Lh20W38LILI7OgYY-41" style="edgeStyle=orthogonalEdgeStyle;rounded=0;orthogonalLoop=1;jettySize=auto;html=1;exitX=1;exitY=0.25;exitDx=0;exitDy=0;entryX=0.25;entryY=1;entryDx=0;entryDy=0;" edge="1" parent="1" source="D53-Lh20W38LILI7OgYY-28" target="D53-Lh20W38LILI7OgYY-2">
          <mxGeometry relative="1" as="geometry" />
        </mxCell>
        <mxCell id="D53-Lh20W38LILI7OgYY-42" value="payment" style="edgeLabel;html=1;align=center;verticalAlign=middle;resizable=0;points=[];" vertex="1" connectable="0" parent="D53-Lh20W38LILI7OgYY-41">
          <mxGeometry x="-0.3244" y="7" relative="1" as="geometry">
            <mxPoint as="offset" />
          </mxGeometry>
        </mxCell>
        <mxCell id="D53-Lh20W38LILI7OgYY-28" value="0" style="swimlane;childLayout=stackLayout;horizontal=1;startSize=50;horizontalStack=0;rounded=1;fontSize=14;fontStyle=0;strokeWidth=2;resizeParent=0;resizeLast=1;shadow=0;dashed=0;align=center;arcSize=4;whiteSpace=wrap;html=1;" vertex="1" parent="1">
          <mxGeometry x="290" y="268" width="160" height="120" as="geometry" />
        </mxCell>
        <mxCell id="D53-Lh20W38LILI7OgYY-30" style="edgeStyle=orthogonalEdgeStyle;rounded=0;orthogonalLoop=1;jettySize=auto;html=1;exitX=1;exitY=0.5;exitDx=0;exitDy=0;entryX=0.375;entryY=0;entryDx=0;entryDy=0;entryPerimeter=0;" edge="1" parent="1" source="D53-Lh20W38LILI7OgYY-1" target="D53-Lh20W38LILI7OgYY-28">
          <mxGeometry relative="1" as="geometry" />
        </mxCell>
        <mxCell id="D53-Lh20W38LILI7OgYY-31" value="personal_information_request_car" style="edgeLabel;html=1;align=center;verticalAlign=middle;resizable=0;points=[];" vertex="1" connectable="0" parent="D53-Lh20W38LILI7OgYY-30">
          <mxGeometry x="-0.3591" y="-8" relative="1" as="geometry">
            <mxPoint as="offset" />
          </mxGeometry>
        </mxCell>
        <mxCell id="D53-Lh20W38LILI7OgYY-44" value="Car_Rental_system" style="text;html=1;align=center;verticalAlign=middle;resizable=0;points=[];autosize=1;strokeColor=none;fillColor=none;" vertex="1" parent="1">
          <mxGeometry x="305" y="338" width="130" height="30" as="geometry" />
        </mxCell>
      </root>
    </mxGraphModel>
  </diagram>
</mxfile>
